<svg xmlns="http://www.w3.org/2000/svg" xmlns:xlink="http://www.w3.org/1999/xlink" width="472" zoomAndPan="magnify" viewBox="0 0 354 74.249996" height="99" preserveAspectRatio="xMidYMid meet" version="1.0"><defs><g/><clipPath id="87bccfdccf"><path d="M 154 0.0585938 L 187 0.0585938 L 187 11 L 154 11 Z M 154 0.0585938 " clip-rule="nonzero"/></clipPath><clipPath id="15af522dae"><path d="M 141 26 L 221 26 L 221 73.21875 L 141 73.21875 Z M 141 26 " clip-rule="nonzero"/></clipPath><clipPath id="ace83c2f8e"><path d="M 1.769531 12 L 139 12 L 139 39 L 1.769531 39 Z M 1.769531 12 " clip-rule="nonzero"/></clipPath><clipPath id="fb571ff37c"><path d="M 345.046875 35 L 351.230469 35 L 351.230469 39 L 345.046875 39 Z M 345.046875 35 " clip-rule="nonzero"/></clipPath></defs><path fill="#ffffff" d="M 30.527344 57.070312 C 32.535156 57.070312 33.832031 55.839844 33.832031 53.980469 C 33.832031 52.109375 32.535156 50.894531 30.527344 50.894531 L 28.339844 50.894531 L 28.339844 57.070312 Z M 26.667969 49.480469 L 30.605469 49.480469 C 33.523438 49.480469 35.523438 51.28125 35.523438 53.980469 C 35.523438 56.683594 33.535156 58.484375 30.605469 58.484375 L 26.667969 58.484375 Z M 26.667969 49.480469 " fill-opacity="1" fill-rule="nonzero"/><path fill="#ffffff" d="M 51.96875 55.089844 L 50.269531 51.152344 L 48.585938 55.089844 Z M 52.523438 56.394531 L 48.023438 56.394531 L 47.132812 58.484375 L 45.410156 58.484375 L 49.464844 49.480469 L 51.109375 49.480469 L 55.175781 58.484375 L 53.425781 58.484375 Z M 52.523438 56.394531 " fill-opacity="1" fill-rule="nonzero"/><path fill="#ffffff" d="M 73.839844 49.480469 L 73.839844 58.484375 L 72.464844 58.484375 L 67.496094 52.386719 L 67.496094 58.484375 L 65.832031 58.484375 L 65.832031 49.480469 L 67.210938 49.480469 L 72.175781 55.574219 L 72.175781 49.480469 Z M 73.839844 49.480469 " fill-opacity="1" fill-rule="nonzero"/><path fill="#ffffff" d="M 85.128906 53.980469 C 85.128906 51.289062 87.1875 49.351562 89.960938 49.351562 C 91.421875 49.351562 92.691406 49.875 93.519531 50.855469 L 92.441406 51.875 C 91.789062 51.171875 90.976562 50.816406 90.039062 50.816406 C 88.167969 50.816406 86.820312 52.128906 86.820312 53.980469 C 86.820312 55.832031 88.167969 57.148438 90.039062 57.148438 C 90.976562 57.148438 91.789062 56.800781 92.441406 56.078125 L 93.519531 57.109375 C 92.691406 58.085938 91.421875 58.613281 89.949219 58.613281 C 87.1875 58.613281 85.128906 56.671875 85.128906 53.980469 " fill-opacity="1" fill-rule="nonzero"/><path fill="#ffffff" d="M 111.402344 57.078125 L 111.402344 58.484375 L 104.644531 58.484375 L 104.644531 49.480469 L 111.214844 49.480469 L 111.214844 50.882812 L 106.316406 50.882812 L 106.316406 53.230469 L 110.660156 53.230469 L 110.660156 54.605469 L 106.316406 54.605469 L 106.316406 57.089844 L 111.402344 57.089844 Z M 111.402344 57.078125 " fill-opacity="1" fill-rule="nonzero"/><path fill="#ffffff" d="M 225.753906 57.535156 L 226.328125 56.238281 C 227.050781 56.8125 228.191406 57.226562 229.296875 57.226562 C 230.703125 57.226562 231.296875 56.722656 231.296875 56.058594 C 231.296875 54.121094 225.945312 55.386719 225.945312 52.042969 C 225.945312 50.585938 227.101562 49.351562 229.574219 49.351562 C 230.652344 49.351562 231.792969 49.636719 232.574219 50.152344 L 232.050781 51.449219 C 231.238281 50.972656 230.347656 50.746094 229.566406 50.746094 C 228.179688 50.746094 227.605469 51.289062 227.605469 51.972656 C 227.605469 53.890625 232.949219 52.644531 232.949219 55.949219 C 232.949219 57.394531 231.78125 58.621094 229.308594 58.621094 C 227.914062 58.613281 226.507812 58.175781 225.753906 57.535156 " fill-opacity="1" fill-rule="nonzero"/><path fill="#ffffff" d="M 244.289062 50.894531 L 241.300781 50.894531 L 241.300781 49.480469 L 248.941406 49.480469 L 248.941406 50.894531 L 245.953125 50.894531 L 245.953125 58.484375 L 244.28125 58.484375 L 244.28125 50.894531 Z M 244.289062 50.894531 " fill-opacity="1" fill-rule="nonzero"/><path fill="#ffffff" d="M 257.9375 54.566406 L 257.9375 49.480469 L 259.609375 49.480469 L 259.609375 54.496094 C 259.609375 56.347656 260.4375 57.148438 261.894531 57.148438 C 263.347656 57.148438 264.167969 56.347656 264.167969 54.496094 L 264.167969 49.480469 L 265.8125 49.480469 L 265.8125 54.566406 C 265.8125 57.1875 264.328125 58.613281 261.875 58.613281 C 259.410156 58.613281 257.9375 57.1875 257.9375 54.566406 " fill-opacity="1" fill-rule="nonzero"/><path fill="#ffffff" d="M 279.992188 57.070312 C 282 57.070312 283.296875 55.839844 283.296875 53.980469 C 283.296875 52.109375 282 50.894531 279.992188 50.894531 L 277.804688 50.894531 L 277.804688 57.070312 Z M 276.132812 49.480469 L 280.070312 49.480469 C 282.992188 49.480469 284.988281 51.28125 284.988281 53.980469 C 284.988281 56.683594 283 58.484375 280.070312 58.484375 L 276.132812 58.484375 Z M 276.132812 49.480469 " fill-opacity="1" fill-rule="nonzero"/><path fill="#ffffff" d="M 294.738281 49.480469 L 296.410156 49.480469 L 296.410156 58.484375 L 294.738281 58.484375 Z M 294.738281 49.480469 " fill-opacity="1" fill-rule="nonzero"/><path fill="#ffffff" d="M 314.191406 53.980469 C 314.191406 52.140625 312.847656 50.816406 311.023438 50.816406 C 309.214844 50.816406 307.859375 52.140625 307.859375 53.980469 C 307.859375 55.820312 309.203125 57.148438 311.023438 57.148438 C 312.835938 57.148438 314.191406 55.820312 314.191406 53.980469 M 306.175781 53.980469 C 306.175781 51.320312 308.234375 49.351562 311.023438 49.351562 C 313.816406 49.351562 315.875 51.308594 315.875 53.980469 C 315.875 56.652344 313.816406 58.613281 311.023438 58.613281 C 308.234375 58.613281 306.175781 56.644531 306.175781 53.980469 " fill-opacity="1" fill-rule="nonzero"/><path fill="#ffffff" d="M 324.867188 57.535156 L 325.441406 56.238281 C 326.164062 56.8125 327.304688 57.226562 328.410156 57.226562 C 329.816406 57.226562 330.410156 56.722656 330.410156 56.058594 C 330.410156 54.121094 325.058594 55.386719 325.058594 52.042969 C 325.058594 50.585938 326.214844 49.351562 328.6875 49.351562 C 329.765625 49.351562 330.90625 49.636719 331.6875 50.152344 L 331.164062 51.449219 C 330.351562 50.972656 329.460938 50.746094 328.679688 50.746094 C 327.292969 50.746094 326.71875 51.289062 326.71875 51.972656 C 326.71875 53.890625 332.0625 52.644531 332.0625 55.949219 C 332.0625 57.394531 330.894531 58.621094 328.421875 58.621094 C 327.015625 58.613281 325.609375 58.175781 324.867188 57.535156 " fill-opacity="1" fill-rule="nonzero"/><g clip-path="url(#87bccfdccf)"><path fill="#ffffff" d="M 157.824219 8.234375 C 157.824219 8.234375 160.117188 8.609375 162.433594 7.679688 C 162.445312 7.679688 162.453125 7.671875 162.472656 7.660156 C 163.433594 7.363281 164.292969 6.78125 164.96875 6.402344 C 165.203125 6.273438 165.414062 6.144531 165.601562 6.027344 C 165.621094 6.015625 165.640625 6.007812 165.667969 5.996094 C 165.667969 5.996094 166.539062 5.582031 167.796875 6.226562 C 168.210938 6.441406 168.757812 6.71875 169.359375 7.027344 C 169.667969 7.183594 169.984375 7.34375 170.3125 7.5 C 170.3125 7.5 170.90625 7.808594 171.578125 8.066406 C 171.726562 8.117188 172.152344 8.242188 172.597656 8.304688 C 173.042969 8.363281 173.734375 8.304688 174.011719 8.234375 C 176.078125 7.660156 177.988281 4.859375 178.503906 4.265625 C 179.019531 3.671875 179.820312 2.644531 181.570312 2.257812 C 183.324219 1.871094 185.09375 2.613281 185.300781 4.214844 C 185.46875 5.492188 184.855469 7.542969 183.402344 8.789062 C 181.710938 10.253906 180.167969 9.816406 180.167969 9.816406 C 180.335938 9.867188 181.53125 10.886719 181.53125 10.886719 C 181.53125 10.886719 182.027344 11.074219 182.886719 10.816406 C 182.90625 10.808594 182.925781 10.808594 182.949219 10.796875 C 183.007812 10.777344 183.074219 10.757812 183.144531 10.726562 C 184.242188 10.3125 185.074219 9.324219 185.578125 8.480469 C 186.242188 7.394531 187.171875 4.988281 186.480469 3.394531 C 185.609375 1.394531 184.234375 0.78125 182.097656 0.554688 C 178.941406 0.121094 175.953125 5.117188 174.0625 5.96875 C 173.714844 6.144531 172.914062 6.394531 172.171875 6.007812 C 172.152344 5.996094 168.054688 4 167.984375 3.980469 C 166.164062 3.238281 164.046875 4.335938 163.957031 4.382812 C 163.058594 4.917969 162.105469 5.53125 161.089844 5.800781 C 160.5625 5.9375 159.21875 6.175781 158.207031 6.046875 C 158.140625 6.027344 156.347656 5.613281 156.851562 3.453125 C 157.140625 2.296875 157.347656 2.109375 157.070312 1.355469 C 156.785156 0.753906 156.238281 0.425781 156.210938 0.40625 C 155.972656 0.277344 155.683594 0.148438 155.339844 0.0390625 C 155.339844 0.0390625 155.496094 0.238281 155.585938 0.59375 C 155.617188 0.714844 155.636719 0.863281 155.644531 1.019531 C 155.65625 1.238281 155.617188 1.535156 155.4375 2.050781 C 155.179688 2.683594 155.011719 3.484375 154.902344 4.117188 C 154.855469 4.40625 154.914062 5.027344 155.011719 5.800781 C 155.308594 8.074219 157.359375 8.195312 157.824219 8.234375 " fill-opacity="1" fill-rule="nonzero"/></g><path fill="#ffffff" d="M 184.453125 13.003906 C 184.433594 13.398438 184.460938 13.558594 184.460938 13.558594 C 184.898438 14.101562 185.292969 14.6875 185.609375 15.308594 C 185.609375 15.308594 185.828125 15.765625 185.886719 15.882812 C 186.113281 15.65625 187.035156 14.605469 186.28125 13.308594 C 185.429688 11.847656 190.132812 9.660156 192.683594 12.339844 C 195.238281 15.023438 195.5625 22.878906 204.113281 17.929688 L 204.90625 17.367188 C 204.90625 17.367188 199.355469 19 197.296875 13.527344 C 195.226562 8.054688 188.914062 9.324219 187.09375 10.054688 C 185.46875 10.71875 184.558594 12.003906 184.453125 13.003906 " fill-opacity="1" fill-rule="nonzero"/><path fill="#ffffff" d="M 190.566406 25.34375 C 191.25 24.542969 191.675781 23.839844 191.921875 23.375 C 192.128906 23.007812 192.191406 22.769531 192.191406 22.769531 C 192.546875 21.523438 191.65625 20.484375 190.785156 19.773438 C 190.785156 19.773438 188.578125 18.386719 188.417969 18.140625 C 188.417969 18.140625 187.339844 18.78125 188.25 19.890625 C 189.160156 21.007812 190.558594 21.078125 190.527344 22.375 C 190.507812 23.542969 189.824219 24.640625 188.460938 25.144531 C 187.300781 25.5625 186.53125 24.917969 186.222656 24.542969 C 186.042969 24.292969 185.855469 24.007812 185.789062 23.917969 C 185.09375 24.027344 184.09375 24.015625 183.5 23.800781 C 184.898438 26.570312 187.230469 27.984375 187.230469 27.984375 C 188.804688 28.203125 189.191406 27.34375 189.191406 27.34375 C 189.003906 27.292969 188.746094 27.046875 188.617188 26.769531 C 188.984375 26.660156 189.714844 26.332031 190.566406 25.34375 " fill-opacity="1" fill-rule="nonzero"/><path fill="#ffffff" d="M 183.839844 18.664062 C 183.097656 12.210938 179.832031 10.449219 179.832031 10.449219 L 178.761719 11.332031 C 180.085938 11.996094 181.105469 15.171875 182.136719 17.8125 C 183.164062 20.445312 184.441406 20.632812 184.441406 20.632812 C 184.105469 20.257812 183.839844 18.664062 183.839844 18.664062 " fill-opacity="1" fill-rule="nonzero"/><g clip-path="url(#15af522dae)"><path fill="#ffffff" d="M 210.230469 54.050781 L 210.269531 54.050781 C 207.003906 51.0625 202.667969 47.90625 196.929688 44.738281 C 196.257812 44.371094 195.574219 43.996094 194.863281 43.628906 C 192.554688 42.375 189.539062 40.671875 185.550781 38.21875 C 181.679688 35.84375 180.761719 33.683594 180.988281 32.003906 C 180.988281 31.992188 181.136719 29.390625 183.828125 28.402344 C 184.261719 28.242188 184.769531 28.125 185.363281 28.066406 L 183.839844 26.53125 C 181.652344 27.164062 179.640625 28.460938 178.839844 30.875 C 178.78125 31.011719 178.730469 31.160156 178.691406 31.308594 C 177.8125 33.785156 175.929688 37.761719 175.929688 37.761719 L 176.8125 37.929688 C 181.957031 39.039062 186.382812 40.730469 189.667969 42.820312 C 190.09375 43.066406 190.527344 43.324219 190.953125 43.582031 C 192.664062 44.621094 194.308594 45.71875 195.851562 46.847656 C 195.871094 46.867188 195.890625 46.875 195.910156 46.886719 C 196.703125 47.539062 197.394531 48.164062 198.019531 48.777344 C 199.105469 49.695312 199.996094 50.667969 200.640625 51.683594 C 200.9375 52.148438 201.183594 52.636719 201.382812 53.121094 C 201.550781 53.546875 201.691406 53.980469 201.777344 54.425781 C 201.867188 54.871094 201.917969 55.328125 201.917969 55.792969 C 201.917969 58.433594 201.304688 65.824219 184.480469 68.933594 C 167.660156 72.050781 147.292969 68.476562 141.117188 64.855469 C 141.59375 65.65625 155.546875 76.214844 184.460938 72.40625 C 213.375 68.605469 220.261719 72.652344 220.261719 72.652344 C 220.261719 72.652344 221.390625 64.292969 210.230469 54.050781 " fill-opacity="1" fill-rule="nonzero"/></g><path fill="#ffffff" d="M 181.15625 22.257812 C 179.621094 20.167969 178.839844 17.316406 178.523438 15.863281 C 178.414062 15.300781 178.355469 14.902344 178.355469 14.902344 C 178.355469 14.933594 178.355469 14.964844 178.347656 14.992188 C 178.335938 14.941406 178.335938 14.914062 178.335938 14.914062 C 178.335938 14.914062 177.722656 17.109375 173.476562 23.621094 C 169.371094 29.925781 162.425781 32.269531 161.988281 32.410156 C 160.949219 31.25 159.554688 28.53125 162.742188 23.839844 C 163.355469 22.9375 163.898438 22.148438 164.363281 21.445312 C 167.300781 17.0625 167.707031 16.121094 168.210938 13.222656 C 168.320312 12.617188 168.292969 12.101562 168.164062 11.675781 C 168.042969 11.273438 167.835938 10.945312 167.570312 10.679688 C 167.34375 10.449219 167.066406 10.261719 166.769531 10.105469 C 166.480469 9.957031 166.164062 9.847656 165.847656 9.746094 C 165.027344 9.519531 164.15625 9.441406 163.523438 9.390625 L 163.53125 9.402344 L 163.503906 9.402344 C 163.503906 9.402344 164.304688 10.3125 164.511719 13.507812 C 164.671875 16.042969 164.117188 18.121094 163.226562 20.007812 C 162.414062 21.730469 161.316406 23.296875 160.21875 24.886719 C 158.269531 27.71875 156.328125 30.667969 155.980469 34.84375 C 155.933594 35.445312 155.914062 36.078125 155.941406 36.742188 C 157.269531 36.625 158.632812 36.546875 160.007812 36.496094 C 154.476562 40.800781 148.234375 45.066406 142.503906 48.726562 C 142.21875 48.945312 141.929688 49.152344 141.632812 49.371094 C 138.121094 51.921875 134.054688 54.425781 131.015625 57.652344 C 130.007812 58.722656 129.105469 59.878906 128.382812 61.144531 C 131.074219 59.066406 137.8125 56.988281 137.8125 56.988281 C 144.660156 49.863281 157.167969 41.148438 157.851562 40.671875 C 159.582031 39.296875 161.285156 37.882812 162.949219 36.445312 C 165.164062 34.515625 167.320312 32.539062 169.398438 30.5 C 175.78125 24.679688 181.15625 22.257812 181.15625 22.257812 " fill-opacity="1" fill-rule="nonzero"/><g clip-path="url(#ace83c2f8e)"><path fill="#ffffff" d="M 9.765625 29.507812 C 9.46875 29.359375 9.183594 29.210938 8.886719 29.0625 L 11.875 18.761719 L 15.625 31.09375 C 13.378906 31.359375 11.605469 30.460938 9.765625 29.507812 M 24.320312 37.941406 L 16.386719 12.320312 L 11.410156 12.320312 L 6.351562 28.054688 C 4.996094 27.679688 3.511719 27.609375 1.769531 28.171875 L 2.1875 30.972656 C 3.402344 30.578125 4.472656 30.558594 5.480469 30.757812 L 3.175781 37.929688 L 6.382812 37.929688 L 6.449219 37.671875 C 6.636719 36.941406 7.3125 34.457031 8.113281 31.6875 C 8.46875 31.855469 8.824219 32.03125 9.183594 32.222656 C 10.835938 33.070312 12.636719 34.003906 14.863281 34.003906 C 15.375 34.003906 15.910156 33.953125 16.464844 33.832031 L 17.710938 37.921875 L 24.320312 37.921875 Z M 105.832031 38.375 C 99.984375 38.375 97.449219 35.308594 97.449219 29.726562 L 97.449219 14.617188 L 102.871094 14.617188 L 102.871094 30.015625 C 102.871094 34.25 104.871094 35.25 107.414062 35.25 C 109.335938 35.25 111.738281 34.359375 111.738281 29.765625 L 111.738281 25.226562 C 111.738281 22.355469 111.5 15.714844 111.453125 14.972656 L 111.433594 14.605469 L 114.332031 14.605469 L 114.332031 29.765625 C 114.320312 35.484375 111.460938 38.375 105.832031 38.375 M 90.96875 37.921875 L 85.566406 37.921875 L 85.566406 29.339844 L 78.042969 29.339844 L 78.042969 37.921875 L 72.640625 37.921875 L 72.640625 14.617188 L 78.042969 14.617188 L 78.042969 26.601562 L 85.566406 26.601562 L 85.566406 14.617188 L 90.96875 14.617188 Z M 61.359375 37.921875 L 55.957031 37.921875 L 55.957031 17.359375 C 54.394531 17.40625 50.734375 17.535156 49.734375 17.625 L 49.359375 17.65625 L 49.359375 14.617188 L 67.953125 14.617188 L 67.953125 17.65625 L 67.574219 17.625 C 66.59375 17.535156 63.628906 17.40625 61.359375 17.359375 C 61.359375 17.359375 61.359375 37.921875 61.359375 37.921875 M 125.40625 26.601562 L 129.324219 26.601562 C 129.324219 26.601562 131.390625 25.164062 131.390625 21.355469 C 131.390625 19.109375 129.421875 17.359375 127.613281 17.359375 L 125.40625 17.359375 Z M 138.507812 37.921875 L 132.550781 37.921875 L 128.621094 29.339844 L 125.40625 29.339844 L 125.40625 37.921875 L 120 37.921875 L 120 14.617188 L 129.015625 14.617188 C 133.003906 14.617188 136.972656 16.328125 136.972656 21.472656 C 136.972656 24.839844 135.539062 26.472656 133.113281 27.597656 Z M 34.929688 26.601562 L 38.847656 26.601562 C 38.847656 26.601562 40.917969 25.164062 40.917969 21.355469 C 40.917969 19.109375 38.949219 17.359375 37.136719 17.359375 L 34.929688 17.359375 Z M 48.03125 37.921875 L 42.074219 37.921875 L 38.144531 29.339844 L 34.929688 29.339844 L 34.929688 37.921875 L 29.527344 37.921875 L 29.527344 14.617188 L 38.542969 14.617188 C 42.53125 14.617188 46.496094 16.328125 46.496094 21.472656 C 46.496094 24.839844 45.0625 26.472656 42.636719 27.597656 Z M 48.03125 37.921875 " fill-opacity="1" fill-rule="nonzero"/></g><path fill="#ffffff" d="M 348.609375 14.617188 L 345.066406 14.617188 C 345.066406 16.734375 344.640625 21.097656 340.703125 24.53125 L 335.953125 14.617188 L 330.003906 14.617188 L 336.257812 27.273438 L 336.257812 37.921875 L 341.679688 37.921875 L 341.679688 27.917969 C 347.746094 23.660156 348.609375 15.765625 348.609375 14.617188 M 233.089844 12.351562 L 226.09375 32.4375 L 219.066406 12.351562 L 213.574219 12.351562 L 213.574219 37.921875 L 216.582031 37.921875 C 216.582031 37.921875 216.246094 30.488281 216.246094 25.066406 L 216.246094 22.414062 L 221.550781 37.921875 L 227.023438 37.921875 L 232.445312 22.574219 L 232.445312 37.921875 L 238.472656 37.921875 L 238.472656 12.351562 Z M 296.222656 26.601562 L 300.140625 26.601562 C 300.140625 26.601562 302.207031 25.164062 302.207031 21.355469 C 302.207031 19.109375 300.238281 17.359375 298.429688 17.359375 L 296.222656 17.359375 Z M 309.3125 37.921875 L 303.355469 37.921875 L 299.425781 29.339844 L 296.210938 29.339844 L 296.210938 37.921875 L 290.808594 37.921875 L 290.808594 14.617188 L 299.824219 14.617188 C 303.8125 14.617188 307.78125 16.328125 307.78125 21.472656 C 307.78125 24.839844 306.34375 26.472656 303.921875 27.597656 Z M 273.234375 26.601562 L 277.152344 26.601562 C 277.152344 26.601562 279.222656 25.164062 279.222656 21.355469 C 279.222656 19.109375 277.25 17.359375 275.441406 17.359375 L 273.234375 17.359375 Z M 286.324219 37.921875 L 280.367188 37.921875 L 276.441406 29.339844 L 273.222656 29.339844 L 273.222656 37.921875 L 267.820312 37.921875 L 267.820312 14.617188 L 276.835938 14.617188 C 280.824219 14.617188 284.792969 16.328125 284.792969 21.472656 C 284.792969 24.839844 283.355469 26.472656 280.933594 27.597656 Z M 317.417969 29.816406 L 320.445312 20.136719 L 323.703125 30.894531 C 321.605469 30.84375 319.503906 29.726562 317.417969 29.816406 M 331.441406 37.941406 L 324.214844 14.617188 L 319.367188 14.617188 L 312.0625 37.941406 L 315.101562 37.941406 L 315.160156 37.703125 C 315.320312 37.070312 315.882812 34.992188 316.578125 32.625 C 319.21875 32.050781 321.859375 33.894531 324.503906 33.546875 L 325.839844 37.941406 C 325.839844 37.941406 331.441406 37.941406 331.441406 37.941406 M 253.433594 38.375 C 247.585938 38.375 245.050781 35.308594 245.050781 29.726562 L 245.050781 14.617188 L 250.472656 14.617188 L 250.472656 30.015625 C 250.472656 34.25 252.472656 35.25 255.015625 35.25 C 256.9375 35.25 259.339844 34.359375 259.339844 29.765625 L 259.339844 25.226562 C 259.339844 22.355469 259.101562 15.714844 259.054688 14.972656 L 259.035156 14.605469 L 261.933594 14.605469 L 261.933594 29.765625 C 261.914062 35.484375 259.0625 38.375 253.433594 38.375 " fill-opacity="1" fill-rule="nonzero"/><g clip-path="url(#fb571ff37c)"><g fill="#ffffff" fill-opacity="1"><g transform="translate(345.04745, 40.720728)"><g><path d="M 0.921875 -2.09375 L 0.921875 -2.25 L 1.375 -2.3125 L 1.375 -4.984375 L 1.265625 -4.984375 C 0.910156 -4.984375 0.675781 -4.96875 0.5625 -4.9375 L 0.5 -4.453125 L 0.34375 -4.453125 L 0.34375 -5.21875 L 2.90625 -5.21875 L 2.90625 -4.453125 L 2.765625 -4.453125 L 2.703125 -4.9375 C 2.597656 -4.957031 2.359375 -4.96875 1.984375 -4.96875 L 1.875 -4.96875 L 1.875 -2.3125 L 2.328125 -2.25 L 2.328125 -2.09375 Z M 4.984375 -2.09375 L 4.890625 -2.09375 L 3.859375 -4.6875 L 3.859375 -2.3125 L 4.25 -2.25 L 4.25 -2.09375 L 3.21875 -2.09375 L 3.21875 -2.25 L 3.59375 -2.3125 L 3.59375 -5 L 3.21875 -5.0625 L 3.21875 -5.21875 L 4.203125 -5.21875 L 5.078125 -2.953125 L 6.03125 -5.21875 L 6.953125 -5.21875 L 6.953125 -5.0625 L 6.578125 -5 L 6.578125 -2.3125 L 6.953125 -2.25 L 6.953125 -2.09375 L 5.703125 -2.09375 L 5.703125 -2.25 L 6.09375 -2.3125 L 6.09375 -4.6875 Z M 4.984375 -2.09375 "/></g></g></g></g></svg>